<svg width="400" height="400" xmlns="http://www.w3.org/2000/svg" viewBox="0 0 400 400">
  <rect width="400" height="400" fill="#0a0a0a"/>
  
  <!-- BUNGI X BOBBY Text -->
  <text x="200" y="40" font-family="Arial, sans-serif" font-size="24" font-weight="bold" fill="#e0e0e0" opacity="0.15" text-anchor="middle">BUNGI × BOBBY</text>
  
  <!-- Bobby Rabbit Circle -->
  <g transform="translate(200,200)">
    <circle cx="0" cy="0" r="80" fill="none" stroke="#e0e0e0" stroke-width="2" opacity="0.1"/>
    
    <!-- Rabbit silhouette -->
    <g opacity="0.15">
      <!-- Body -->
      <ellipse cx="0" cy="15" rx="35" ry="45" fill="#e0e0e0"/>
      <!-- Head -->
      <circle cx="0" cy="-20" r="25" fill="#e0e0e0"/>
      <!-- Ears -->
      <ellipse cx="-12" cy="-45" rx="8" ry="20" fill="#e0e0e0" transform="rotate(-10 -12 -45)"/>
      <ellipse cx="12" cy="-45" rx="8" ry="20" fill="#e0e0e0" transform="rotate(10 12 -45)"/>
      <!-- Eyes -->
      <circle cx="-8" cy="-20" r="3" fill="#0a0a0a"/>
      <circle cx="8" cy="-20" r="3" fill="#0a0a0a"/>
      <!-- Nose -->
      <path d="M-3,-10 Q0,-7 3,-10" stroke="#0a0a0a" stroke-width="2" fill="none"/>
    </g>
    
    <!-- Cross marks around -->
    <g stroke="#e0e0e0" stroke-width="2" opacity="0.1">
      <path d="M-100,-100 L-90,-90 M-95,-100 L-100,-95"/>
      <path d="M100,-100 L90,-90 M95,-100 L100,-95"/>
      <path d="M-100,100 L-90,90 M-95,100 L-100,95"/>
      <path d="M100,100 L90,90 M95,100 L100,95"/>
    </g>
  </g>
  
  <!-- Tech elements -->
  <g stroke="#e0e0e0" stroke-width="1" fill="none" opacity="0.08">
    <!-- Left bracket -->
    <path d="M50,150 L30,150 L30,250 L50,250"/>
    <!-- Right bracket -->
    <path d="M350,150 L370,150 L370,250 L350,250"/>
    <!-- Tech lines -->
    <line x1="30" y1="200" x2="80" y2="200"/>
    <line x1="320" y1="200" x2="370" y2="200"/>
  </g>
  
  <!-- HIGH-VOLTAGE text -->
  <text x="50" y="200" font-family="monospace" font-size="10" fill="#e0e0e0" opacity="0.1" transform="rotate(-90 50 200)">HIGH-VOLTAGE</text>
  
  <!-- Pattern elements -->
  <g fill="#e0e0e0" opacity="0.05">
    <rect x="100" y="80" width="20" height="20" transform="rotate(45 110 90)"/>
    <rect x="280" y="80" width="20" height="20" transform="rotate(45 290 90)"/>
    <rect x="100" y="300" width="20" height="20" transform="rotate(45 110 310)"/>
    <rect x="280" y="300" width="20" height="20" transform="rotate(45 290 310)"/>
  </g>
  
  <!-- RABBIT text -->
  <text x="200" y="340" font-family="Arial, sans-serif" font-size="18" font-weight="bold" fill="#e0e0e0" opacity="0.12" text-anchor="middle">RABBIT</text>
  
  <!-- HARDWARE text -->
  <text x="200" y="365" font-family="Arial, sans-serif" font-size="24" font-weight="bold" fill="#e0e0e0" opacity="0.15" text-anchor="middle">HARDWARE</text>
  
  <!-- Small cross marks scattered -->
  <g stroke="#e0e0e0" stroke-width="1" opacity="0.08">
    <path d="M60,60 L70,70 M70,60 L60,70"/>
    <path d="M330,60 L340,70 M340,60 L330,70"/>
    <path d="M60,330 L70,340 M70,330 L60,340"/>
    <path d="M330,330 L340,340 M340,330 L330,340"/>
    <path d="M150,120 L160,130 M160,120 L150,130"/>
    <path d="M240,120 L250,130 M250,120 L240,130"/>
    <path d="M150,270 L160,280 M160,270 L150,280"/>
    <path d="M240,270 L250,280 M250,270 L240,280"/>
  </g>
  
  <!-- B logo box -->
  <g transform="translate(100,340)">
    <rect x="-20" y="-20" width="40" height="40" fill="none" stroke="#e0e0e0" stroke-width="2" opacity="0.1"/>
    <text x="0" y="8" font-family="Arial, sans-serif" font-size="28" font-weight="bold" fill="#e0e0e0" opacity="0.15" text-anchor="middle">B</text>
  </g>
</svg>