<?xml version="1.0" encoding="UTF-8"?>
<svg id="Layer_1" xmlns="http://www.w3.org/2000/svg" version="1.1" viewBox="0 0 638.25 507">
  <!-- Generator: Adobe Illustrator 29.5.1, SVG Export Plug-In . SVG Version: 2.1.0 Build 141)  -->
  <path d="M638.25,507"/>
  <line x1="637.5" x2="638.25"/>
  <path d="M637.5,506.25"/>
  <path d="M165.18,385.68c-4.66-.52-13.64-3.86-18.11-5.86-11.2-5-22.59-14.04-24.13-27,8.1-3.06,15.16-8.25,20.87-14.7-2.63-3.25-9.12-2.08-12.71-.74-5.61,2.1-8.57,7.45-13.81,9.38l-10.19-7.13-8.22-9.38c-.32,6.98,2.97,15.25,8.23,19.85,1.98,1.73,5.91,3.21,7.11,4.87,2,2.76,2.46,9.83,5.02,12.95l9.59,11c-14.06.56-30.3-17.89-34.66-30.12-10.07-28.27,7.92-53.29,19.06-77.96,6.95-15.39,12.73-31.32,20.93-46.1l4.41.67c-2.15,7.93-6.79,15.43-5.99,23.95l8.25-12.33,7.1-6.38c.96.46.1,2.07-.22,2.77-2.06,4.45-6.82,8.85-6.89,14.44l4.88-5.22,11.97-8.99c1.18.91,1.1.93.78,2.25-.91,3.82-4.34,8.23-4.15,12.71l4.12-5.23,12.35-7.5c1.97,5.51-1.91,10.24-1.49,15.72l20.96-18.72c-2.73,8.44-2.79,17.99,2.63,25.45,4.62-7.65,4.16-23.12,12.83-27.6,16.9-8.74,43.29-8.6,61.92-8.5l30.5-14.81-7.48,10.48c2.82,1.05,4.84-.08,7.43-.44.71-.1,2.26-.81,1.55.82-.82,1.89-7.29,6.11-9.23,8-.68.67-1.63.66-1.25,2.11l14.23-1.49-11.23,8.97c5.21,1.94,9.52.27,14.45-.9.96-.23,1.42-1.46,1.28.53l-4.55,4.44-8.92,5.67c4.72.28,8.9-.03,13.49-1.11,7.69-1.81,15.35-7.44,23.21-6.75l-5.24,4.86,14.98-1.48c-.88,3.62-9.37,5.58-10.48,6.74-1.21,1.27.37,1.26,1.05,1.56,2.13.96,4.13,1.06,6.39,2.6,11.41,7.76-2.93,9.45-9.69,10.07l7.48,3.73-24.71,3.01,8.23,5.61-6.73,1.12,5.99,8.23-7.49-1.49,5.99,12.72-7.48-2.99,3.73,12.73-8.23-6.74c3.71,9.52,5.02,21.6-.38,30.68l-3.37-1.47c-1.9,12.02-9.19,22.35-17.62,30.7l-.74-5.23c-4.03,5.15-9.05,10.29-14.36,14.1-1.76,1.27-8.88,7.02-7.73,1.29l-1.49-.41-1.47,2.65-11.28,7.82c11.78.8,23.37-3.98,33.46-9.6,33.96-18.92,50-55.74,62.43-90.74l5.61,4.48c3.83-3.27-.3-7.22-1.87-10.46,5.86,2.19,8.59-1.59,5.24-6.74l4.49.74-3.74-8.98c.6-.44,7.06.98,5.99-1.12-2.25-2.16-6.45-4.15-7.49-7.12h13.48l-14.98-11.97c4.32.05,11.59-3.75,15.36-3.75h11.99c.12,0,2.19.73,1.87,1.49l-14.99,4.13c9.26,4.83,23,.67,20.88,16-4.37,1.8-9.17,1.69-13.77,2.33-1.11.16-1.87-.02-2.59,1.14l8.97,8.61h-15.73c-.23,5.53,2.01,11.06.74,16.47l-3.38-2.99c-1.71-.02-1.74,1.29-1.89,2.58-.75,6.19,1.81,13.81,3.04,19.88,1.74,1.36,7.19-15.9,5.24-17.96l5.24,4.49-.73-12.73c12.45,7.65,8.09,19.83,8.99,31.82,1.72,22.9,21.79,50.54,30.31,72.3,2.85,7.28,7.01,18.41,3.57,25.99-2.24,4.93-18.66,9.78-23.98,11.22-6.71,1.82-14.3,3.63-21.13,3.96-.4,2.24.59,1.19,1.75,1.58,4.7,1.59,10.63,2.85,13.97,6.65-20.36-1.7-39.85,10.4-59.93,5.24-.33-1.3.54-1.5,1.12-2.25,7.44-9.66,14.64-15.34,19.75-27.44,3.5-8.29,4.48-16.1,5.34-24.98l-8.67,15.66c-3.98,5.69-7.68,11.72-12.28,16.93-1.83,2.07-11.7,12.68-14.25,10.83,1.43-4.24,3.07-9.53,3.67-13.92.15-1.11.74-5.09-.66-5.53-1.23,4.9-4.85,10.09-7.94,14.16-4.84,6.37-11.33,13.13-19.04,15.78,1.17-3,2.17-6.52,1.13-9.72-9.73,15.49-26.43,22.19-43.67,25.99-24.09,5.3-49.51,2.01-67.2-16.25l1.51,8.98-13.13-10.09-8.97-13.12v10.48c-6.35-5.43-10.09-13.48-11.25-21.71l-2.25,5.24c-1.13,1.17-2.49-2.19-2.74-2.85-2.64-7.08-1.06-13.84-.24-21.11,13.82,6.61,29.58,6.16,44.42,3.86,2.51.58,17.47,20.54,18.51,24.59,1.32.19.73-1.69.57-2.44-1.85-8.43-6.14-17.11-11.04-24.15l10.09-6.23c13.42,10.32,24.78,22.75,37.07,34.32-2.32-6.05-6.96-11.98-10.93-17.15-6.01-7.82-12.83-15.07-19.64-22.16l7.72-10.08,36.34,24.67-7.1-9.75c-7.73-8.14-16.35-15.32-25.78-21.45l3.68-18.23,3.75,1.11-9.74-28.07c1.16.62,15.38,8,14.23,8.98h-2.26c-2.07,1.94,8.05,8.49,9.37,9.74l-1.13-7.48,15.37,12c3.22.06,2.19-9.75,1.86-12l8.98,4.49-1.49-14.23,8.23,7.49c.89-5.09.85-9.26-.74-14.22l7.48,2.99-2.24-11.97c.99-1.03,7.18,6.62,8.13,3.26,1.26-4.48-1.29-12.18-4.38-15.62l6.73,1.13c-.33-4.67-1.58-9.32-3.74-13.47l8.24,2.23c-2.02-3.97-4.99-7.1-8.24-10.11l4.49-1.86c-8.03-3.78-15.8-6.03-24.72-3.75-2.15,2.08,7.25,1.77,5.99,4.48l-11.98,3.38,7.47,3.75-10.49,3.73c-1.85.98,2.22,2.54,1.51,4.13h-8.99c1.42,2.5,4.85,3.7,7.49,4.51-1.75,4.21-16.88-.25-17.97.74l1.49,4.49-8.98-.74c.39,4.41,4.26,6.05,6.74,8.98-4.45.58-8.21-1.84-11.98-3.74-.35,2.75,1,4.68,2.99,6.37-4.25,1.11-8.01-2.53-11.23-4.87l.74,6.73c-.58.02-1.18.08-1.75-.12-1.68-.57-11.98-14.91-14.73-12.6l2.24,5.98-4.12-2.99c-1.68,1.82,6.08,9.36,5.62,9.72-2.14.23-4.3-2.81-5.98-.37,14.07,14.45,23.87,30.89,14.96,51.3-4.93-2.6-10.25-3.85-15.72-2.24-1.17,1.17,10.18,8.91,11.94,9.04l-5.58,8.91c-3.42-2.92-8.77-7.1-13.27-7.72-.97-.13-1.05-.9-2.07.6-.16,2.71,7.55,10.71,10.46,11.63l-.45,1.53-9.31,3.29c-2.2-2.09-15.36-16.36-17.94-13.82.73,5.88,6.15,10.2,9.73,14.61.19,2.29-.81.36-1.12.36-4.85,0-11.11.52-15.73,0ZM206.76,260.99c-.42,4.16.31,8.88,0,13.11,7-.95,3.54-7.17,4.5-11.98,2.97,3.41,2.39,6.87,7.34,8.76,10.67,4.08,23.11-2.67,27.25-12.74,3.53-8.6,1.59-15.21-.01-23.95l5.11-5.39c.05-2.23-13.92-.51-15.89-.17-15.69,2.72-26.73,16.88-28.3,32.37ZM274.93,234.42l3.37-2.26c.87-2.1-9.23-1.93-11.22-1.51-6.96,7.98-7.75,19.3-11.5,28.24-.6,1.43-5.94,8.58-5.38,9.22,5.51-5.38,12.5-8.85,20.22-9.74l-.75-2.24h8.24c-.54-2.6-5.02-1.11-4.49-3.75l8.99-1.51c-3.49-3.27-9.66-3.43-14.23-4.49,3.07-4.26,5.87-8.97,11.98-8.24l-4.75-2.24-.48-1.48ZM173.05,268.85l-.38-5.24c-5.58,6.27-7.85,18.1-3.75,25.45l1.86-1.48c.78,7.08,8.07,13.48,14.99,14.22l-.74-2.24,2.24.74c-.51-5.46,1.69-10.56,3-15.72-1.42-1.48-5.9,6.55-7.48,6.74l2.23-14.58-1.52-.83-6.71,7.16.74-15.72-4.48,1.5ZM212,283.83h16.11c1.89,0,16.3-6.25,14.61-7.48-8.42.16-18.39.38-26.39,3.2-2,.71-4.92,1.51-4.33,4.29ZM180.91,310.79c-4.08-.49-8.93.36-13.11,0l.75-3.74-10.49.74c-.21-.17,3.12-3.29.78-4.9l-7.52-.34,1.49-5.23-5.99.74c1.5-3.84-.41-7.15,1.49-11.22l-5.23,2.24,2.24-9.74c-9.45.9-15.79,13.02-15.72,21.72l4.48-3c.11,1.39-.6,6.37,1.14,6.74l7.1-5.99-2.24,12.73c3.04.41,4.54-2.34,6.73-3.74l-1.49,9.73,6.74-1.49-2.24,7.48,11.98-2.23-8.24,8.22,10.48-.74-5.24,8.98,13.48-.74-8.23,7.48c2.89-1.05,6.02-1.08,8.99-1.87,4.57-1.2,11-4.79,15.38-4.9,4.62-.11,8.6,2.94,12.59,3.9.92.22.82,1.1,1.97-.5l-14.21-13.48,7.49-1.88c1.67-1.61-19.44-8.44-20.97-8.24,1.17-2.04,8.2-3.39,8.98-4.87.62-1.17-2.84-1.8-3.36-1.86ZM101.88,319.02c9.54-.2,8.24-10.92,5.23-17.21l-2.45,10.64-2.78,6.57ZM194.02,348.23c1.94-2.49-13.54-3.18-14.98-.36,5.03,1.98,9.89,2.35,14.98.36ZM167.8,354.22c.42-4.01-4.42-4.61-7.49-4.48.24,1.79,6.57,5.44,7.49,4.48ZM185.03,359.46c-1.15-5.42-8.18-2.7-11.98-4.48-.24,1.66,3.41,3.67,4.48,4.12,2.46,1.03,4.99,1.37,7.49.36ZM158.07,358.72c-1.46,1.55,5.32,7.91,5.99,4.85.62-2.86-5.6-5.27-5.99-4.85Z"/>
  <path d="M256.2,39.7c-.36,1.3-3.15,1.68-4.33,2.03-3.18.95-9.42,2.46-12.56,2.48-6.15.03-20.16-7.12-21.33,2.58-.61,5.04-.32,10.68,5.08,12.17,13.52,3.74,38.41-10.84,52.22-15.54,16.28-5.54,53.12-15.08,66.31-1.11,7.75,8.21,13.53,33.77,15.51,45.15,1.16,6.67,2.05,13.76,2.11,20.39l-4.89,2.23c-1.76-16.95-4.03-34.44-10.88-50.16-5.83-13.38-10.26-16.14-25.45-14.98-24.07,1.85-45.27,13.57-60.32,31.81-.7.84-1.82,1.21-1.49,2.62,1.72,1.61,15.05-8.35,17.45-8.9l1.69,1.42-.37,1.9c-3.03,4.32-10.17,9.47-12.78,13.46-.67,1.02-.59,1.84.37,1.85l19.11-9.41,3.74.45c.87,1.11-13.09,13.21-14.23,14.59-.69.84-1.82,1.2-1.5,2.62l23.96-8.98c.92,1.02-2.28,4.56-3.02,5.58-3.09,4.25-7.15,7.59-10.46,11.63,2.29-.02,4.52-1.06,6.5-2.1,2.86-1.51,9.98-7.73,12.01-8.24,1.12-.28,2.04-.05,2.39,1.1,1.53,5.09-14.58,27.66-20.15,30.6-.31,1.63.75,1.14,1.88,1.14,3.63,0,8.03-2.13,11.59-3.02-.1.78.23,1.85.02,2.48-.63,1.91-11.75,7.35-13.5,9.49,8.59.3,17.23-.61,25.62-2.46,8.9-1.96,19.82-7.47,27.94-8.77.86-.14,1.6-.13.76.76-.74.79-5.42,3.96-6.61,4.63-24.07,13.72-98.55,11.01-126.51,6.36-4.57-.76-30.09-6.04-31.75-8.74,2.28-16.08,5.71-32.18,10.91-47.57,4.4-13.04,15.28-39.35,28.45-44.95s32.62,2.02,46.47,3.4Z"/>
  <path d="M422.5,143.03c5.09-6.84,14.89-16.96,4.44-24.28-13.06-9.14-44.05,3.72-56.9,10.42-46.48,24.21-80.39,66.4-132.58,81.64-31.83,9.3-83.67,11.5-114.13-2.73-55.38-25.86-12.44-106,39.22-97.99.52.47-2.4,5.26-2.99,5.61-.74.44-10.12,1.5-12.73,2.25-22.94,6.59-39.73,32.42-37.37,56.07.11,1.13,2.47,12.43,3.65,10.95,2.5-23.04,24.12-34.8,44.59-39.67l.82,1.53c-3.01,11.95,3.14,13.76,12.3,17.52,15.74,6.46,35.05,9.11,52.01,10.16,16.11,1,32.19-.13,48.35-.77-12.31,9.53-25.98,17.27-39.95,24.09l-16.23,5.85c26.78.42,52.26-13.8,73.65-28.59,34.46-23.82,90.93-80.59,136.51-65.04,18.75,6.4,13.68,27.67-2.65,32.97Z"/>
  <path d="M420.26,467.3l-23.97-2.98,8.24,6.37-6.33,1.16c-11.19-.85-22.51-1.57-33.36-4.53l1.11,2.25,5.62,5.23-18.72-4.48c2.53,7.15-5.67,11.45-11.25,13.84-16.18,6.93-37.99,9.12-55.42,10.12,1.28-7.51,4.47-14.09,7.49-20.96-9.86,2.61-12.07,14.11-17.26,21.33-3.84.36-24.22-.52-25.84-2.59,1.94-9.57,8.98-17.06,15.39-23.98-10.89,3.07-20.64,11.12-25.43,21.37-10.87-1.86-8.99-6.82-4.66-14.38,20.12-35.17,86.86-22.16,118.19-40.68,24.67,2.11,51.94,11.81,66.22,32.94Z"/>
  <path d="M403.03,303.3c1.18-.69,1.64-3.71,2.03-5.08,5.38-19.08,14.34-54.85,15.18-73.93.67-15.15-4.98-30.05-8.22-44.55,11.81,4.24,23.11,9.37,31.48,19.08,7.85,9.11,12.39,23.37,15.7,34.84-6.86-6.63-13.01-14.32-20.21-20.6-.72-.63-5.47-4.63-6-4.1,6.39,14.75,1.34,31.82-3.4,46.4-4.89,15.02-13.85,31.39-17.35,46.31-5.38,22.89,15.18,56.85,23.01,79.15,14.09,40.12,23.18,98.67,70.58,111.42l21.54,5.04c-19.74.89-39.67.19-55.44-13.09-21.98-18.5-34.69-71.77-46.09-99.21-9.43-22.71-24.34-46.26-32.38-68.73-6.97-19.49,1.89-51.82,2.85-73.18,1.09-24.33-1.64-44.65-17.26-64.05,11.29,4.51,21.24,17.94,25.06,29.23,6.33,18.7-.05,44.89-1.12,64.72-.54,9.98-.34,20.41.04,30.36Z"/>
  <path d="M604.53,307.79c-1.96-1.88-3.56-5.06-4.88-7.47-13.9-25.49-23.68-58.91-46.45-77.88-11.19-9.32-41.77-27.12-55.43-31.46-.38-.12-1.22-.21-1.11.36,5.7,6.7,12.6,17.23,14.65,25.8.18.75.99,2.45-.41,2.28-7.54-15.85-22.19-26.42-32.22-40.43,16.7,1.73,33.91,9.26,48.96,16.57,33.36,16.21,47.24,31.69,61.51,65.82,6.28,15.03,10.92,30.75,15.37,46.41Z"/>
  <path d="M72.66,457.57l-12.33,2.28c-4.89,1.14-30.24-2.19-31.75-6.52-2.03-5.83,7.12-30.97,12.36-35.34,13.18-10.98,37.99-2.41,55.73-10.94,5.1-2.45,9.53-7.22,14.94-8.64,1.3,1.3-8.24,12.44-9.72,13.87-12.05,11.68-29.72,15.65-40.1,28.81-.62-9.41,8.64-15.14,13.86-21.71h-12.36c-8.54,0-16.85,8.52-18.76,16.44-2.39,9.88-2.94,17,7.91,19.87,2.16.57,7.46,1.88,9.36,1.88h10.86Z"/>
  <path d="M615.02,399.16c-27.63-22.97-45.86-55.37-59.17-88.37,4.44,5.19,8.57,10.72,12.59,16.24,9.93,13.63,20.15,28.37,29.52,42.38,6.39,9.56,12.49,19.13,17.06,29.75Z"/>
  <path d="M383.55,220.17c-9.39-3.89-17.55-8.56-28.09-8.22-11.19.36-29.59,4.82-38.62-4.84-6.79-7.27,7.43-2.89,10.91-2.67,7.43.47,14.77-.45,22.09-1.49l-13.47-8.6c-.03-1.66,9.1-1.28,10.68-.95,3.67.75,27.11,17.38,30.9,20.78,1.98,1.78,3.97,3.89,5.6,6Z"/>
  <path d="M576.82,421.63l-12.97,8.37c-18.02,12.6-31.07,31.2-49.95,42.55-1-1.11,10.85-17.42,12.43-19.39,12.57-15.68,29.62-29.91,50.48-31.52Z"/>
  <path d="M489.17,209.68c-23.8-10.3-35.99-33.99-52.44-52.41,25.18,7.52,38.03,32.51,52.44,52.41Z"/>
  <path d="M214.25,146.78v19.47l-17.15-3.81c-.7-.81,1.87-15.35,1.43-17.91l15.73,2.25Z"/>
  <path d="M81.59,337.81l1.57,4.42c-19.6,5.76-38.9,13.76-54.68,26.97-.33-1.41.78-1.78,1.49-2.62,11.68-13.9,33.94-25.52,51.62-28.77Z"/>
  <path d="M87.64,354.23l1.51,5.23c-15.09,6.4-25.54,19.7-34.45,32.96,4.68-13.98,13.45-26.33,25.67-34.61,1.17-.79,6.18-4.54,7.27-3.58Z"/>
  <path d="M80.9,327.26c-11.01-1.89-22.11-3.52-33.34-3.32-5.39.1-10.75,1.01-16.11,1.45-.78.06-2.39,1.11-2.24-.37,4.4-1.39,8.76-2.75,13.34-3.52,8.52-1.44,18.06-1.97,26.64-.89,4.18.53,13.41,1.02,11.71,6.64Z"/>
  <path d="M83.67,305.77c1.01,1.2,1.09,4.64-.76,4.16-4.96-1.28-13.86-9.37-19.48-11.26l-26.72-10.34c12.79.71,26.03,4.92,37.21,11.1,2.08,1.15,8.51,4.86,9.76,6.34Z"/>
  <path d="M412.76,152.03c-.17,1.22-2.7,1.53-3.74,1.86-10.7,3.45-22.51,6.05-33.71,7.11l24.53-11.07,12.91,2.1Z"/>
  <path d="M180.43,139.4l-1.01,18.61-6.27-2.34c-.53-5.98,1.1-11.91,1.4-17.87l5.88,1.61Z"/>
  <path d="M233.6,236.03c1.39.85,2.56,9.81,3.12,11.84-2.41-.02-7.84,1.78-9.79.43-2.71-1.88.53-16.02,6.67-12.27Z"/>
</svg>